<svg id="Layer_1" data-name="Layer 1" xmlns="http://www.w3.org/2000/svg" viewBox="0 0 50 50"><defs><style>.cls-1{fill:#e62b33;}.cls-2{fill:#fff;}</style></defs><title>pinterest</title><circle id="_Path_" data-name="&lt;Path&gt;" class="cls-1" cx="25" cy="25" r="25"/><path id="_Path_2" data-name="&lt;Path&gt;" class="cls-2" d="M26.25,9.24C17.9,9.24,13.69,15,13.69,19.87A9.63,9.63,0,0,0,14,22.42a5.61,5.61,0,0,0,3.27,3.95,0.61,0.61,0,0,0,.88-0.43c0.08-.3.27-1.05,0.36-1.37a0.81,0.81,0,0,0-.25-0.95,4.47,4.47,0,0,1-1-1.76,5.74,5.74,0,0,1-.21-1.58c0-4.3,3.33-8.15,8.65-8.15,4.72,0,7.31,2.79,7.31,6.52a14.94,14.94,0,0,1-.32,3.14c-0.73,3.41-2.66,5.9-5.25,5.9a2.66,2.66,0,0,1-2.78-3.28c0.25-1,.62-2.09.93-3.09a10.88,10.88,0,0,0,.62-2.94,2.31,2.31,0,0,0-2.37-2.55c-1.88,0-3.39,1.88-3.39,4.4a7,7,0,0,0,.12,1.27,5.73,5.73,0,0,0,.44,1.42L18.82,32.2a18.48,18.48,0,0,0-.05,6.46,0.24,0.24,0,0,0,.42.1,18,18,0,0,0,3.17-5.57c0.22-.76,1.24-4.68,1.24-4.68a5.09,5.09,0,0,0,4.29,2.12c4.6,0,8-3.31,9.1-8.14A15.75,15.75,0,0,0,37.38,19C37.38,13.94,33,9.24,26.25,9.24Z"/></svg>