<svg id="Layer_1" data-name="Layer 1" xmlns="http://www.w3.org/2000/svg" viewBox="0 0 50 50"><defs><style>.cls-1{fill:#43bdef;}.cls-2{fill:#fff;}</style></defs><title>twitter</title><circle id="_Path_" data-name="&lt;Path&gt;" class="cls-1" cx="25" cy="25" r="25"/><path id="_Path_2" data-name="&lt;Path&gt;" class="cls-2" d="M39.81,17.37a12.26,12.26,0,0,1-3.49.94A6,6,0,0,0,39,15a12.26,12.26,0,0,1-3.86,1.45,6.11,6.11,0,0,0-4.43-1.89,6,6,0,0,0-5.92,7.34,17.34,17.34,0,0,1-12.52-6.25,5.89,5.89,0,0,0-.82,3,6,6,0,0,0,2.7,5,6.13,6.13,0,0,1-2.75-.75V23a5.87,5.87,0,0,0,.42,2.17,6.07,6.07,0,0,0,4.46,3.7,6.27,6.27,0,0,1-1.6.21,6.08,6.08,0,0,1-1.14-.11,6.07,6.07,0,0,0,5.68,4.15,12.31,12.31,0,0,1-7.55,2.56,12.57,12.57,0,0,1-1.45-.08,17.41,17.41,0,0,0,9.31,2.69A16.91,16.91,0,0,0,36.38,24.85a16.44,16.44,0,0,0,.41-3.61c0-.26,0-0.52,0-0.77A12.21,12.21,0,0,0,39.81,17.37Z"/></svg>