<svg id="Layer_1" data-name="Layer 1" xmlns="http://www.w3.org/2000/svg" viewBox="0 0 50 50"><defs><style>.cls-1{fill:#f15a4b;}.cls-2{fill:#fff;}</style></defs><title>youtube</title><circle id="_Path_" data-name="&lt;Path&gt;" class="cls-1" cx="25" cy="25" r="25"/><path class="cls-2" d="M39.51,18.9a6.86,6.86,0,0,0-1.18-3.07,4.15,4.15,0,0,0-3-1.31C31.22,14.21,25,14.21,25,14.21h0s-6.22,0-10.36.31a4.14,4.14,0,0,0-3,1.31,6.87,6.87,0,0,0-1.18,3.07,48.49,48.49,0,0,0-.3,5v2.34a48.53,48.53,0,0,0,.3,5,6.87,6.87,0,0,0,1.18,3.06,4.9,4.9,0,0,0,3.27,1.32C17.3,35.85,25,35.93,25,35.93s6.22,0,10.37-.32a4.14,4.14,0,0,0,3-1.31,6.85,6.85,0,0,0,1.18-3.06,48.4,48.4,0,0,0,.3-5V23.89A48.42,48.42,0,0,0,39.51,18.9Zm-9.57,5.86-8,4.32V20.4l3.61,2Z"/></svg>